<svg width="386px" height="119px" viewBox="302 1075 386 119" version="1.1" xmlns="http://www.w3.org/2000/svg" xmlns:xlink="http://www.w3.org/1999/xlink">
    <defs></defs>
    <g id="spin_cycle" stroke="none" stroke-width="1" fill="none" fill-rule="evenodd" transform="translate(302.000000, 1075.000000)">
        <path d="M348.769326,17.1298115 C346.711704,16.4079778 344.538581,15.7117929 342.322681,15.0302646 L342.322681,0 L320.937956,15.2684331 L342.326959,30.5405303 L342.326959,21.2373022 C348.448491,23.893797 353.27385,26.7664755 356.187032,29.8516737 C360.802779,34.7176394 360.580334,39.6202464 355.934642,44.3249904 C351.028005,49.2752311 341.219008,53.9616544 327.110822,58.0947939 C312.365244,62.3891552 293.166475,66.0019882 270.464187,68.5778722 C250.379914,70.8496333 227.853016,72.2090258 204,72.54979 L204.29089,94.4649563 C234.231216,94.00694 262.357755,91.9147213 287.057775,88.3641785 C314.076364,84.4801999 336.385094,79.0792711 352.918793,72.7623096 C368.532765,66.7677916 378.683985,60.0587681 382.884786,53.0895913 C386.828918,46.5711026 385.545578,39.8803997 378.795208,33.3399262 C372.52823,27.2501408 362.021952,21.8125707 348.769326,17.1298115 Z" id="Fill-1" fill="#ED145B"></path>
        <path d="M114.075046,68.3479267 C91.6123151,65.779371 72.5932139,62.1921869 57.984525,57.9344669 C43.872061,53.8013274 34.0758977,49.1149041 29.1820939,44.1646634 C24.5235691,39.4599194 24.3139569,34.5573124 28.9168703,29.6913467 C33.275949,25.0855342 41.5877155,20.9157534 52.5944963,17.3029204 C56.354683,16.0644442 60.5512053,14.910243 64.9402287,13.8000114 L64.9402287,9 C54.4638952,11.3633644 44.7703991,14.0088668 36.343132,16.9658204 C23.0776725,21.6485795 12.5927834,27.0861497 6.30869437,33.1759351 C-0.437397096,39.7164086 -1.72501506,46.4071114 2.21483924,52.9292642 C6.43275059,59.898441 16.5839713,66.6074645 32.2107767,72.6019825 C48.718809,78.9189441 71.0275389,84.3198729 98.050405,88.2038515 C103.209432,88.9366777 108.642239,89.5632441 114.079324,90.178818 L114.079324,118.923924 L156.857329,82.2899444 L114.079324,45.6413081 L114.079324,68.3479267 L114.075046,68.3479267 Z" id="Fill-3" fill="#ED145B"></path>
    </g>
</svg>
