<svg width="22px" height="24px" viewBox="558 25 22 24" version="1.1" xmlns="http://www.w3.org/2000/svg" xmlns:xlink="http://www.w3.org/1999/xlink">
    <defs></defs>
    <path d="M570.195881,37.0001412 L579.704059,26.6070399 C580.040549,26.2396089 580.040549,25.6432865 579.704059,25.2758556 C579.367913,24.9080481 578.823053,24.9080481 578.486563,25.2758556 L568.978385,35.6693333 L559.469864,25.2758556 C559.134062,24.9080481 558.588514,24.9080481 558.252368,25.2758556 C557.915877,25.6432865 557.915877,26.2396089 558.252368,26.6070399 L567.76089,37.0001412 L558.252368,47.3932424 C557.915877,47.7606734 557.915877,48.3566193 558.252368,48.7244268 C558.420441,48.9077658 558.640864,49 558.861288,49 C559.081711,49 559.302135,48.9077658 559.469864,48.7244268 L568.978385,38.330949 L578.486563,48.7244268 C578.65498,48.9077658 578.875059,49 579.095483,49 C579.315906,49 579.535986,48.9077658 579.704059,48.7244268 C580.040549,48.3569958 580.040549,47.7610499 579.704059,47.3932424 L570.195881,37.0001412 Z" id="Close" stroke="none" fill="#FFFFFF" fill-rule="evenodd"></path>
</svg>
